<svg width="683" height="241" viewBox="0 0 683 241" fill="none" xmlns="http://www.w3.org/2000/svg">
<path fill-rule="evenodd" clip-rule="evenodd" d="M664.39 196.992C658.678 202.618 650.839 206.093 642.183 206.093C624.707 206.093 610.533 191.919 610.533 174.439C610.533 156.959 624.127 143.375 641.106 142.807V174.896L641.119 174.908L644.316 174.896H673.835C673.725 182.673 670.806 189.772 666.05 195.226C665.992 195.293 664.449 196.925 664.39 196.992Z" fill="#002855"/>
<path fill-rule="evenodd" clip-rule="evenodd" d="M25.138 180.642C36.717 133.754 36.4105 163.773 24.429 131.591C12.2064 98.76 20.3743 68.2396 39.1873 45.5012C68.0198 10.6536 129.207 6.81129 163.781 41.3826C221.325 98.9206 171.974 197.283 90.1765 184.406C77.1663 182.357 63.4292 173.505 57.7693 172.728C52.3714 171.987 33.4122 179.218 25.138 180.642ZM0 205.693C14.6699 202.854 30.7892 196.679 44.1097 192.427C69.0951 184.451 103.689 226.179 166.819 179.734C212.494 146.131 217.14 71.2114 175.128 30.0354C128.57 -15.5949 62.1154 -6.22126 24.9014 37.8711C8.09651 57.782 -2.71293 89.5429 4.79397 122.858C8.87094 140.954 19.194 147.505 13.3387 163.926C8.77152 176.736 2.6725 191.755 0 205.693Z" fill="#0082BA"/>
<path fill-rule="evenodd" clip-rule="evenodd" d="M59.1273 148.117H84.0042V57.2034H59.1273V148.117Z" fill="#002855"/>
<path fill-rule="evenodd" clip-rule="evenodd" d="M87.1703 148.117H127.878V125.954H87.1703V148.117Z" fill="#0082BA"/>
<path fill-rule="evenodd" clip-rule="evenodd" d="M122.983 61.1507V61.8439C125.871 63.2298 128.873 62.9724 128.873 69.4664C128.873 72.933 125.116 77.0463 122.983 78.4749V97.5313C124.565 97.1628 127.558 94.6105 129.075 93.576C138.074 87.4392 148.276 80.2967 148.276 68.0805C148.276 60.5139 145.982 55.4538 141.437 51.3587C139.585 49.6912 136.801 48.1472 134.53 47.1778C130.845 45.6048 127.198 45.2128 122.983 45.2128V61.1507Z" fill="#002855"/>
<path fill-rule="evenodd" clip-rule="evenodd" d="M94.5441 114.162L94.5521 114.509L94.9179 114.855H120.558V80.9003C119.455 81.1947 119.689 81.2835 118.823 81.9378L104.524 92.932C103.921 93.3893 103.516 93.6936 102.943 94.1222C102.176 94.6948 101.912 94.9578 101.215 95.5127C100.296 96.244 95.5767 100.035 94.5713 100.303L94.5441 114.162Z" fill="#0082BA"/>
<path fill-rule="evenodd" clip-rule="evenodd" d="M122.983 114.855H148.969V99.2635H122.983V114.855Z" fill="#0082BA"/>
<path fill-rule="evenodd" clip-rule="evenodd" d="M94.918 60.1113C97.3629 61.4051 101.841 65.897 104.48 67.8737C108.541 70.9155 107.516 71.4099 109.072 69.4147C111.449 66.3653 116.362 62.1927 120.558 61.8439V45.2128C114.601 45.2128 108.776 47.4034 105.103 49.8548C102.384 51.6701 96.5307 57.0639 94.918 60.1113Z" fill="#002855"/>
<path fill-rule="evenodd" clip-rule="evenodd" d="M94.9179 114.855L94.5521 114.509L94.5596 114.855H94.9179Z" fill="#373435"/>
<path fill-rule="evenodd" clip-rule="evenodd" d="M544.367 115.017L544.356 114.534L544.346 114.052C542.82 112.872 538.911 106.496 537.346 104.201C536.415 102.836 535.869 102.257 534.926 100.832L506.748 59.5285C507.979 58.7046 508.306 58.2945 509.161 57.1164L525.211 38.9086C526.364 37.7524 526.361 37.3646 527.37 36.2425L543.418 18.0335H511.09L498.671 32.6342C497.922 33.5216 498.205 33.4252 497.453 34.3112L487.643 45.7306C486.983 46.6112 487.176 46.5202 486.372 47.3554C480.448 53.5108 481.658 52.7167 481.658 60.9761C481.658 69.1788 481.658 77.3815 481.658 85.5838C483.066 85.0744 487.097 80.6251 487.448 79.3113C488.9 80.2842 489.549 81.7389 490.632 83.3645C492.994 86.9074 511.153 113.443 511.573 115.017H544.367Z" fill="#002855"/>
<path fill-rule="evenodd" clip-rule="evenodd" d="M412.66 110.192C412.66 111.986 414.962 112.795 415.555 115.017H439.68V18.0335H412.66V110.192Z" fill="#002855"/>
<path fill-rule="evenodd" clip-rule="evenodd" d="M223.518 115.017H250.056V18.0335H223.518V115.017Z" fill="#002855"/>
<path fill-rule="evenodd" clip-rule="evenodd" d="M583.949 40.2284V41.1937C587.972 43.1239 592.151 42.7652 592.151 51.8089C592.151 56.6361 586.92 62.3639 583.949 64.3539V90.8914C586.151 90.3782 590.321 86.8239 592.433 85.3835C604.965 76.8376 619.171 66.891 619.171 49.8786C619.171 39.3417 615.977 32.2948 609.648 26.5922C607.07 24.2701 603.193 22.1195 600.03 20.7699C594.898 18.5789 589.819 18.0335 583.949 18.0335V40.2284Z" fill="#002855"/>
<path fill-rule="evenodd" clip-rule="evenodd" d="M544.866 38.7812C548.271 40.5829 554.506 46.838 558.181 49.5907C563.837 53.8267 562.41 54.515 564.576 51.7363C567.887 47.4904 574.729 41.6797 580.571 41.1937V18.0335C572.276 18.0335 564.165 21.0843 559.05 24.4976C555.263 27.0257 547.112 34.5372 544.866 38.7812Z" fill="#002855"/>
<path fill-rule="evenodd" clip-rule="evenodd" d="M451.743 101.989C453.571 101.022 453.621 100.695 455.12 99.5764L477.055 81.9464C478.478 80.836 478.106 81.8852 478.28 79.794C475.845 80.4441 459.307 94.7685 454.441 98.4153C452.918 99.5568 451.926 99.7805 451.743 101.989Z" fill="#002855"/>
<path fill-rule="evenodd" clip-rule="evenodd" d="M451.743 91.3741C455.974 88.541 470.028 76.9189 475.468 72.6394C476.14 72.1117 476.279 71.9368 477.055 71.3313C478.478 70.2209 478.106 71.2704 478.28 69.1788C476.052 69.7737 464.474 79.91 461.393 82.2065L454.441 87.8002C452.918 88.9416 451.926 89.1657 451.743 91.3741Z" fill="#002855"/>
<path fill-rule="evenodd" clip-rule="evenodd" d="M451.743 96.6817C453.571 95.7141 453.621 95.3872 455.12 94.2688L475.468 77.9469C478.818 75.3198 478.128 76.3198 478.28 74.4864C476.762 74.8919 477.63 74.6141 476.414 75.5152C475.809 75.9642 475.384 76.2707 474.787 76.7828C473.656 77.753 472.542 78.6786 471.329 79.5978C468.89 81.4464 466.96 83.041 464.635 84.967C463.799 85.6598 463.812 85.5079 462.975 86.201L456.281 91.5699C453.63 93.5802 451.92 94.5496 451.743 96.6817Z" fill="#002855"/>
<path fill-rule="evenodd" clip-rule="evenodd" d="M451.743 43.6061C456.697 40.2888 470.77 28.4695 477.055 23.5633C478.478 22.4529 478.106 23.5024 478.28 21.4109C476.762 21.8164 477.63 21.5386 476.414 22.4397C475.809 22.8887 475.384 23.1956 474.787 23.7073L456.281 38.4947C453.63 40.5047 451.92 41.4741 451.743 43.6061Z" fill="#002855"/>
<path fill-rule="evenodd" clip-rule="evenodd" d="M451.743 86.0665L477.147 66.1155C478.211 65.2901 478.148 65.465 478.28 63.8712C476.5 64.3467 473.019 67.5427 471.239 68.8927L454.441 82.4926C452.918 83.6344 451.926 83.8581 451.743 86.0665Z" fill="#002855"/>
<path fill-rule="evenodd" clip-rule="evenodd" d="M451.743 107.296C454.353 105.915 468.105 94.3097 471.925 91.2906L477.055 87.2536C478.478 86.1436 478.106 87.1932 478.28 85.1016C476.874 85.4769 475.946 86.4021 474.787 87.398L461.393 98.1292C460.619 98.7052 460.574 98.8096 459.811 99.4419L454.441 103.723C452.918 104.864 451.926 105.088 451.743 107.296Z" fill="#002855"/>
<path fill-rule="evenodd" clip-rule="evenodd" d="M451.743 80.7589L472.008 64.8361C472.781 64.2598 472.827 64.1555 473.59 63.5235L477.147 60.8079C478.211 59.9825 478.148 60.1575 478.28 58.5636C476.095 59.1472 460.995 72.0743 456.281 75.6475C453.63 77.6574 451.92 78.6265 451.743 80.7589Z" fill="#002855"/>
<path fill-rule="evenodd" clip-rule="evenodd" d="M453.673 115.017C457.038 115.017 456.326 114.213 460.428 111.157L466.584 106.216C467.307 105.598 467.224 105.722 467.952 105.17L477.349 97.6798C478.767 96.4575 478.085 98.0585 478.28 95.7164C476.627 96.1578 455.065 113.116 453.673 115.017Z" fill="#002855"/>
<path fill-rule="evenodd" clip-rule="evenodd" d="M451.743 75.4513L477.147 55.5007C478.211 54.6749 478.148 54.8502 478.28 53.256C476.242 53.8003 465.97 62.6315 464.635 63.7367L456.281 70.3399C455.406 71.0036 455.318 71.2205 454.441 71.8774C452.918 73.0192 451.926 73.2429 451.743 75.4513Z" fill="#002855"/>
<path fill-rule="evenodd" clip-rule="evenodd" d="M451.743 64.8361L461.753 56.9944C462.635 56.1969 462.605 56.3832 463.406 55.7517L471.925 48.8306C473.18 47.8381 474.21 47.0916 475.468 46.1018C478.818 43.4674 478.127 44.486 478.28 42.6412C476.402 43.1428 464.763 52.8743 462.975 54.3559L454.503 61.3242C452.932 62.6175 451.948 62.3688 451.743 64.8361Z" fill="#002855"/>
<path fill-rule="evenodd" clip-rule="evenodd" d="M451.743 112.604L475.468 93.8697C476.14 93.3421 476.279 93.1667 477.055 92.5613C478.478 91.4508 478.106 92.5004 478.28 90.4088C476.017 91.0132 458.79 105.562 454.503 109.092C452.932 110.385 451.948 110.137 451.743 112.604Z" fill="#002855"/>
<path fill-rule="evenodd" clip-rule="evenodd" d="M451.743 38.2986C454.071 36.7395 455.842 35.0931 458.015 33.4736L461.258 30.9266C464.195 28.4937 475.662 19.7811 476.833 18.0335C473.354 18.111 466.639 25.0316 463.519 27.3969C462.785 27.9536 462.867 27.9804 462.223 28.5141L457.398 32.3738C456.561 33.0669 456.574 32.915 455.737 33.6082C453.229 35.6854 451.934 35.9949 451.743 38.2986Z" fill="#002855"/>
<path fill-rule="evenodd" clip-rule="evenodd" d="M451.743 48.9138L475.507 30.2179C476.238 29.5603 476.197 29.5339 477.054 28.8694C478.48 27.7628 478.106 28.8093 478.28 26.7185C476.874 27.0938 475.946 28.0194 474.787 29.0149C473.656 29.9851 472.542 30.9107 471.329 31.8299L461.393 39.7461C460.619 40.3225 460.574 40.4268 459.811 41.0591L454.441 45.3398C452.918 46.4812 451.926 46.7054 451.743 48.9138Z" fill="#002855"/>
<path fill-rule="evenodd" clip-rule="evenodd" d="M451.743 54.2213L477.055 34.1785C478.478 33.0681 478.106 34.1176 478.28 32.0257C476.874 32.4014 475.946 33.327 474.787 34.3221L464.635 42.5063C463.799 43.1998 463.812 43.0475 462.975 43.7407L454.441 50.6474C452.918 51.7888 451.926 52.013 451.743 54.2213Z" fill="#002855"/>
<path fill-rule="evenodd" clip-rule="evenodd" d="M451.743 70.1437L477.055 50.1009C478.478 48.9905 478.106 50.0404 478.28 47.9485C476.316 48.4731 466.126 57.1943 464.635 58.4291L454.51 66.639C452.956 67.9516 451.953 67.6194 451.743 70.1437Z" fill="#002855"/>
<path fill-rule="evenodd" clip-rule="evenodd" d="M451.743 59.5286L477.055 39.4861C478.478 38.3757 478.106 39.4252 478.28 37.3336C476.762 37.7388 477.63 37.4614 476.414 38.3624L454.441 55.955C452.918 57.0964 451.926 57.3206 451.743 59.5286Z" fill="#002855"/>
<path fill-rule="evenodd" clip-rule="evenodd" d="M451.743 32.991C453.759 31.924 454.532 30.9118 456.435 29.4809L469.775 18.6957C469.847 18.634 469.974 18.5335 470.039 18.4779L470.56 18.0335H468.57C468.337 18.1185 468.143 18.3389 467.523 18.8559L454.721 29.2141C452.987 30.5781 451.944 30.5724 451.743 32.991Z" fill="#002855"/>
<path fill-rule="evenodd" clip-rule="evenodd" d="M460.428 115.017C463.838 114.941 466.196 111.619 470.074 108.741C471.564 107.634 472.967 106.449 474.42 105.367C477.88 102.788 478.118 102.972 478.28 101.024C476.095 101.608 475.418 102.945 473.743 104.207C472.011 105.513 470.817 106.581 469.196 107.862L460.428 115.017Z" fill="#002855"/>
<path fill-rule="evenodd" clip-rule="evenodd" d="M467.183 115.017C468.593 114.985 468.827 115.154 470.65 113.659C471.213 113.198 471.355 112.972 471.925 112.521L476.001 109.36C477.628 108.162 478.088 108.647 478.28 106.332C477.016 106.669 476.176 107.297 475.263 108.139C474.112 109.199 473.782 109.368 472.625 110.326L467.183 115.017Z" fill="#002855"/>
<path fill-rule="evenodd" clip-rule="evenodd" d="M451.743 27.6834L463.805 18.0335C460.546 18.0335 461.37 18.628 457.133 21.9767C456.067 22.8199 455.148 23.5807 454.154 24.3049C452.806 25.2883 451.916 25.6027 451.743 27.6834Z" fill="#002855"/>
<path fill-rule="evenodd" clip-rule="evenodd" d="M451.743 22.3762C453.26 21.573 456.141 19.3911 457.05 18.0335C455.125 18.0762 454.712 18.4878 453.575 19.3839C452.302 20.3877 451.894 20.5544 451.743 22.3762Z" fill="#002855"/>
<path fill-rule="evenodd" clip-rule="evenodd" d="M473.938 115.017C476.159 114.967 475.472 114.981 476.783 114.002C477.828 113.221 478.135 113.384 478.28 111.639C476.387 112.144 474.903 113.576 473.938 115.017Z" fill="#002855"/>
<path fill-rule="evenodd" clip-rule="evenodd" d="M544.866 115.017L544.356 114.534L544.367 115.017H544.866Z" fill="#373435"/>
<path fill-rule="evenodd" clip-rule="evenodd" d="M348.004 115.017H375.024V62.9063C376.576 63.9453 389.702 81.6694 392.047 84.4844L409.282 106.332C410.425 104.298 409.765 71.3539 409.765 66.2837C409.765 63.9309 403.319 56.4936 401.368 53.9333L392.045 42.0259C386.873 35.1585 377.699 24.1884 373.577 18.0335H348.004V115.017Z" fill="#0082BA"/>
<path fill-rule="evenodd" clip-rule="evenodd" d="M305.061 115.017H332.564V18.0335H305.061V115.017Z" fill="#0082BA"/>
<path fill-rule="evenodd" clip-rule="evenodd" d="M544.346 114.052L544.356 114.534L544.866 115.017H580.571V67.7313C579.036 68.141 579.362 68.2649 578.156 69.1765L558.244 84.4863C557.404 85.1239 556.839 85.5476 556.041 86.144C554.973 86.9415 554.605 87.3077 553.635 88.0802C552.356 89.0988 545.783 94.3777 544.383 94.7515L544.346 114.052Z" fill="#0082BA"/>
<path fill-rule="evenodd" clip-rule="evenodd" d="M253.433 115.017H296.858V91.3741H253.433V115.017Z" fill="#0082BA"/>
<path fill-rule="evenodd" clip-rule="evenodd" d="M583.949 115.017H620.137V93.3039H583.949V115.017Z" fill="#0082BA"/>
<path d="M411.737 118.655H440.007C446.382 118.655 451.241 119.143 454.586 120.118C459.08 121.442 462.929 123.793 466.134 127.173C469.339 130.552 471.778 134.697 473.45 139.609C475.122 144.486 475.958 150.513 475.958 157.69C475.958 163.995 475.174 169.43 473.607 173.993C471.691 179.567 468.956 184.078 465.403 187.527C462.72 190.14 459.097 192.178 454.533 193.641C451.119 194.721 446.556 195.261 440.843 195.261H411.737V118.655ZM427.204 131.614V182.354H438.752C443.072 182.354 446.19 182.11 448.106 181.622C450.614 180.995 452.687 179.933 454.324 178.435C455.997 176.937 457.355 174.481 458.4 171.067C459.445 167.618 459.968 162.933 459.968 157.01C459.968 151.088 459.445 146.542 458.4 143.372C457.355 140.202 455.892 137.728 454.011 135.951C452.13 134.175 449.743 132.973 446.852 132.346C444.692 131.858 440.459 131.614 434.154 131.614H427.204ZM499.995 156.697L486.67 154.293C488.168 148.928 490.746 144.957 494.404 142.379C498.062 139.801 503.497 138.512 510.708 138.512C517.257 138.512 522.134 139.296 525.339 140.863C528.544 142.396 530.791 144.365 532.08 146.768C533.404 149.137 534.066 153.509 534.066 159.884L533.909 177.024C533.909 181.901 534.135 185.507 534.588 187.841C535.076 190.14 535.964 192.613 537.253 195.261H522.726C522.343 194.286 521.873 192.84 521.316 190.924C521.072 190.053 520.897 189.478 520.793 189.199C518.285 191.638 515.602 193.467 512.746 194.686C509.889 195.905 506.841 196.515 503.601 196.515C497.888 196.515 493.376 194.965 490.067 191.864C486.792 188.764 485.155 184.845 485.155 180.107C485.155 176.972 485.904 174.185 487.402 171.746C488.9 169.273 490.99 167.392 493.673 166.103C496.39 164.779 500.292 163.629 505.378 162.654C512.241 161.365 516.996 160.163 519.643 159.048V157.585C519.643 154.763 518.947 152.76 517.553 151.576C516.16 150.356 513.53 149.747 509.663 149.747C507.05 149.747 505.012 150.269 503.549 151.314C502.086 152.325 500.901 154.119 499.995 156.697ZM519.643 168.611C517.762 169.238 514.784 169.987 510.708 170.858C506.632 171.729 503.967 172.582 502.713 173.418C500.797 174.777 499.839 176.501 499.839 178.592C499.839 180.647 500.605 182.424 502.138 183.922C503.671 185.42 505.622 186.169 507.99 186.169C510.638 186.169 513.164 185.298 515.567 183.556C517.344 182.232 518.511 180.612 519.069 178.696C519.452 177.442 519.643 175.056 519.643 171.537V168.611ZM574.041 139.766V151.471H564.008V173.836C564.008 178.365 564.095 181.013 564.269 181.779C564.478 182.511 564.914 183.12 565.576 183.608C566.272 184.096 567.108 184.34 568.084 184.34C569.442 184.34 571.411 183.869 573.989 182.929L575.243 194.32C571.829 195.784 567.962 196.515 563.642 196.515C560.995 196.515 558.608 196.08 556.483 195.209C554.358 194.303 552.791 193.153 551.78 191.76C550.805 190.332 550.125 188.416 549.742 186.012C549.429 184.305 549.272 180.856 549.272 175.665V151.471H542.531V139.766H549.272V128.74L564.008 120.17V139.766H574.041ZM595.204 156.697L581.879 154.293C583.377 148.928 585.955 144.957 589.613 142.379C593.271 139.801 598.705 138.512 605.917 138.512C612.466 138.512 617.343 139.296 620.548 140.863C623.753 142.396 626 144.365 627.289 146.768C628.613 149.137 629.275 153.509 629.275 159.884L629.118 177.024C629.118 181.901 629.344 185.507 629.797 187.841C630.285 190.14 631.173 192.613 632.462 195.261H617.935C617.552 194.286 617.082 192.84 616.524 190.924C616.28 190.053 616.106 189.478 616.002 189.199C613.494 191.638 610.811 193.467 607.954 194.686C605.098 195.905 602.05 196.515 598.81 196.515C593.097 196.515 588.585 194.965 585.276 191.864C582.001 188.764 580.364 184.845 580.364 180.107C580.364 176.972 581.113 174.185 582.611 171.746C584.109 169.273 586.199 167.392 588.881 166.103C591.599 164.779 595.5 163.629 600.587 162.654C607.449 161.365 612.205 160.163 614.852 159.048V157.585C614.852 154.763 614.155 152.76 612.762 151.576C611.368 150.356 608.738 149.747 604.871 149.747C602.259 149.747 600.221 150.269 598.758 151.314C597.294 152.325 596.11 154.119 595.204 156.697ZM614.852 168.611C612.971 169.238 609.992 169.987 605.917 170.858C601.841 171.729 599.176 172.582 597.922 173.418C596.005 174.777 595.047 176.501 595.047 178.592C595.047 180.647 595.814 182.424 597.347 183.922C598.88 185.42 600.83 186.169 603.199 186.169C605.847 186.169 608.373 185.298 610.776 183.556C612.553 182.232 613.72 180.612 614.277 178.696C614.661 177.442 614.852 175.056 614.852 171.537V168.611Z" fill="#0082BA"/>
<path d="M412.056 234V212.466H416.404V234H412.056ZM420.605 234V212.466H424.836L433.649 226.847V212.466H437.688V234H433.326L424.645 219.957V234H420.605ZM447.148 234V216.109H440.758V212.466H457.871V216.109H451.496V234H447.148ZM460.691 234V212.466H476.658V216.109H465.039V220.883H475.85V224.511H465.039V230.372H477.069V234H460.691ZM480.874 234V212.642H485.222V230.372H496.033V234H480.874ZM499.264 234V212.642H503.612V230.372H514.423V234H499.264ZM517.405 234V212.466H521.753V234H517.405ZM535.928 226.083V222.455H545.299V231.033C544.388 231.914 543.066 232.693 541.333 233.368C539.61 234.034 537.862 234.367 536.089 234.367C533.837 234.367 531.873 233.897 530.199 232.957C528.524 232.007 527.266 230.656 526.424 228.903C525.582 227.14 525.161 225.226 525.161 223.16C525.161 220.917 525.631 218.924 526.571 217.181C527.511 215.438 528.887 214.102 530.698 213.171C532.079 212.456 533.798 212.099 535.854 212.099C538.527 212.099 540.613 212.662 542.112 213.788C543.62 214.904 544.589 216.452 545.02 218.43L540.701 219.238C540.398 218.18 539.825 217.348 538.983 216.741C538.15 216.124 537.108 215.815 535.854 215.815C533.954 215.815 532.441 216.417 531.315 217.622C530.199 218.826 529.641 220.614 529.641 222.983C529.641 225.539 530.209 227.459 531.345 228.741C532.481 230.014 533.969 230.651 535.81 230.651C536.721 230.651 537.631 230.475 538.542 230.122C539.463 229.76 540.251 229.324 540.907 228.815V226.083H535.928ZM549.324 234V212.466H565.291V216.109H553.672V220.883H564.483V224.511H553.672V230.372H565.702V234H549.324ZM569.433 234V212.466H573.663L582.477 226.847V212.466H586.516V234H582.153L573.472 219.957V234H569.433ZM590.027 226.993L594.257 226.582C594.512 228.002 595.026 229.045 595.799 229.711C596.583 230.377 597.635 230.71 598.957 230.71C600.358 230.71 601.41 230.416 602.116 229.828C602.83 229.231 603.188 228.536 603.188 227.743C603.188 227.233 603.036 226.802 602.732 226.45C602.439 226.088 601.92 225.774 601.175 225.51C600.666 225.334 599.506 225.02 597.694 224.57C595.364 223.992 593.728 223.282 592.788 222.44C591.466 221.255 590.805 219.811 590.805 218.107C590.805 217.01 591.114 215.987 591.73 215.037C592.357 214.077 593.253 213.347 594.419 212.848C595.594 212.349 597.009 212.099 598.664 212.099C601.366 212.099 603.398 212.691 604.76 213.876C606.13 215.061 606.85 216.643 606.919 218.621L602.571 218.812C602.385 217.705 601.983 216.912 601.366 216.432C600.759 215.943 599.844 215.698 598.62 215.698C597.356 215.698 596.367 215.957 595.652 216.476C595.192 216.809 594.962 217.255 594.962 217.813C594.962 218.322 595.177 218.758 595.608 219.12C596.157 219.58 597.489 220.06 599.604 220.56C601.719 221.059 603.281 221.578 604.289 222.117C605.308 222.646 606.101 223.375 606.669 224.305C607.247 225.226 607.536 226.367 607.536 227.728C607.536 228.962 607.193 230.117 606.507 231.194C605.822 232.272 604.853 233.075 603.599 233.603C602.346 234.122 600.784 234.382 598.913 234.382C596.191 234.382 594.1 233.755 592.641 232.502C591.182 231.238 590.311 229.402 590.027 226.993ZM611.193 234V212.466H627.16V216.109H615.541V220.883H626.352V224.511H615.541V230.372H627.571V234H611.193Z" fill="#002855"/>
<path fill-rule="evenodd" clip-rule="evenodd" d="M673.573 147.074C678.842 153.255 682.158 161.154 682.555 169.819H645.813V133.79C652.823 133.976 659.358 136.072 664.916 139.577H664.846H664.009C661.952 139.577 659.941 140.333 658.673 141.179C657.734 141.806 655.712 143.669 655.156 144.721C656 145.167 657.546 146.718 658.457 147.401C659.859 148.452 659.506 148.622 660.042 147.933C660.864 146.88 662.56 145.439 664.009 145.319C664.378 145.296 664.897 145.343 664.897 145.343C665.879 145.795 666.88 145.747 666.88 147.951C666.88 149.148 665.583 150.569 664.846 151.062V151.08L663.718 152.005C663.664 152.038 663.627 152.075 663.564 152.132L663.41 152.258L658.473 156.054C658.264 156.212 658.125 156.317 657.926 156.465C657.662 156.662 657.57 156.754 657.33 156.945C657.013 157.198 655.383 158.506 655.036 158.599L655.026 163.385L655.029 163.504L655.156 163.624H663.352H664.009H664.846H665.052H673.819V158.241H664.846L664.009 158.262V158.109L665.129 157.535V157.534C665.698 157.257 666.506 156.579 666.95 156.276C670.058 154.157 673.58 151.691 673.58 147.472C673.58 147.337 673.578 147.205 673.573 147.074Z" fill="#0082BA"/>
</svg>
