<svg width="684" height="242" viewBox="0 0 684 242" fill="none" xmlns="http://www.w3.org/2000/svg">
<path fill-rule="evenodd" clip-rule="evenodd" d="M665.042 197.679C659.329 203.305 651.491 206.78 642.835 206.78C625.359 206.78 611.185 192.606 611.185 175.126C611.185 157.646 624.779 144.062 641.758 143.494V175.583L641.77 175.595L644.967 175.583H674.486C674.376 183.36 671.457 190.459 666.701 195.913C666.643 195.98 665.101 197.612 665.042 197.679Z" fill="#002855"/>
<path fill-rule="evenodd" clip-rule="evenodd" d="M25.7894 181.329C37.3684 134.441 37.0618 164.46 25.0803 132.278C12.8577 99.447 21.0257 68.9265 39.8386 46.1881C68.6711 11.3405 129.858 7.49825 164.433 42.0696C221.977 99.6076 172.626 197.97 90.8279 185.093C77.8176 183.044 64.0805 174.192 58.4207 173.415C53.0228 172.674 34.0635 179.905 25.7894 181.329ZM0.651367 206.38C15.3212 203.54 31.4405 197.366 44.7611 193.114C69.7464 185.138 104.34 226.866 167.471 180.421C213.145 146.818 217.792 71.8984 175.779 30.7223C129.221 -14.9079 62.7668 -5.53431 25.5528 38.558C8.74787 58.469 -2.06156 90.2298 5.44533 123.545C9.52231 141.641 19.8453 148.192 13.9901 164.613C9.42289 177.423 3.32387 192.441 0.651367 206.38Z" fill="#0082BA"/>
<path fill-rule="evenodd" clip-rule="evenodd" d="M59.7787 148.804H84.6555V57.8903H59.7787V148.804Z" fill="#002855"/>
<path fill-rule="evenodd" clip-rule="evenodd" d="M87.8217 148.804H128.529V126.641H87.8217V148.804Z" fill="#0082BA"/>
<path fill-rule="evenodd" clip-rule="evenodd" d="M123.634 61.8377V62.5308C126.523 63.9168 129.524 63.6594 129.524 70.1534C129.524 73.6199 125.768 77.7332 123.634 79.1619V98.2183C125.216 97.8498 128.21 95.2974 129.727 94.263C138.725 88.1262 148.927 80.9836 148.927 68.7674C148.927 61.2008 146.633 56.1408 142.088 52.0457C140.237 50.3781 137.452 48.8342 135.182 47.8647C131.497 46.2917 127.85 45.8998 123.634 45.8998V61.8377Z" fill="#002855"/>
<path fill-rule="evenodd" clip-rule="evenodd" d="M95.1955 114.849L95.2034 115.196L95.5693 115.542H121.209V81.5872C120.106 81.8816 120.34 81.9705 119.474 82.6247L105.176 93.619C104.573 94.0763 104.167 94.3805 103.594 94.8091C102.827 95.3817 102.563 95.6448 101.866 96.1996C100.948 96.931 96.2281 100.721 95.2227 100.99L95.1955 114.849Z" fill="#0082BA"/>
<path fill-rule="evenodd" clip-rule="evenodd" d="M123.634 115.542H149.62V99.9504H123.634V115.542Z" fill="#0082BA"/>
<path fill-rule="evenodd" clip-rule="evenodd" d="M95.5693 60.7983C98.0143 62.092 102.492 66.584 105.131 68.5607C109.192 71.6025 108.167 72.0968 109.723 70.1016C112.101 67.0523 117.014 62.8797 121.209 62.5308V45.8998C115.252 45.8998 109.428 48.0904 105.755 50.5418C103.035 52.3571 97.1821 57.7509 95.5693 60.7983Z" fill="#002855"/>
<path fill-rule="evenodd" clip-rule="evenodd" d="M95.5693 115.542L95.2034 115.196L95.211 115.542H95.5693Z" fill="#373435"/>
<path fill-rule="evenodd" clip-rule="evenodd" d="M545.018 115.703L545.008 115.221L544.997 114.739C543.471 113.559 539.563 107.183 537.998 104.888C537.066 103.523 536.52 102.944 535.577 101.519L507.399 60.2155C508.63 59.3916 508.958 58.9815 509.812 57.8034L525.862 39.5955C527.015 38.4394 527.012 38.0516 528.021 36.9294L544.07 18.7204H511.742L499.322 33.3211C498.574 34.2086 498.856 34.1122 498.104 34.9981L488.294 46.4176C487.634 47.2982 487.827 47.2071 487.024 48.0424C481.1 54.1977 482.309 53.4036 482.309 61.663C482.309 69.8657 482.309 78.0685 482.309 86.2708C483.717 85.7613 487.749 81.3121 488.099 79.9983C489.552 80.9711 490.2 82.4259 491.284 84.0515C493.646 87.5944 511.804 114.13 512.224 115.703H545.018Z" fill="#002855"/>
<path fill-rule="evenodd" clip-rule="evenodd" d="M413.311 110.879C413.311 112.673 415.613 113.482 416.206 115.703H440.331V18.7204H413.311V110.879Z" fill="#002855"/>
<path fill-rule="evenodd" clip-rule="evenodd" d="M224.17 115.703H250.707V18.7204H224.17V115.703Z" fill="#002855"/>
<path fill-rule="evenodd" clip-rule="evenodd" d="M584.6 40.9153V41.8806C588.623 43.8108 592.803 43.4522 592.803 52.4958C592.803 57.323 587.571 63.0509 584.6 65.0408V91.5784C586.803 91.0651 590.972 87.5109 593.085 86.0705C605.616 77.5246 619.823 67.578 619.823 50.5656C619.823 40.0286 616.628 32.9817 610.299 27.2792C607.721 24.957 603.844 22.8065 600.681 21.4568C595.549 19.2658 590.471 18.7204 584.6 18.7204V40.9153Z" fill="#002855"/>
<path fill-rule="evenodd" clip-rule="evenodd" d="M545.517 39.4682C548.922 41.2699 555.158 47.525 558.833 50.2776C564.488 54.5137 563.061 55.2019 565.228 52.4232C568.539 48.1773 575.381 42.3667 581.222 41.8806V18.7204C572.927 18.7204 564.816 21.7713 559.702 25.1845C555.915 27.7127 547.763 35.2241 545.517 39.4682Z" fill="#002855"/>
<path fill-rule="evenodd" clip-rule="evenodd" d="M452.394 102.676C454.222 101.709 454.273 101.382 455.772 100.263L477.706 82.6334C479.129 81.5229 478.757 82.5721 478.931 80.4809C476.497 81.131 459.958 95.4554 455.093 99.1023C453.57 100.244 452.578 100.467 452.394 102.676Z" fill="#002855"/>
<path fill-rule="evenodd" clip-rule="evenodd" d="M452.394 92.0611C456.625 89.2279 470.679 77.6059 476.12 73.3263C476.791 72.7987 476.931 72.6237 477.706 72.0182C479.129 70.9078 478.757 71.9574 478.931 69.8658C476.704 70.4607 465.125 80.597 462.044 82.8934L455.093 88.4871C453.57 89.6285 452.578 89.8527 452.394 92.0611Z" fill="#002855"/>
<path fill-rule="evenodd" clip-rule="evenodd" d="M452.394 97.3686C454.222 96.4011 454.273 96.0741 455.772 94.9558L476.12 78.6339C479.469 76.0067 478.779 77.0068 478.931 75.1733C477.413 75.5789 478.281 75.3011 477.065 76.2021C476.46 76.6511 476.035 76.9576 475.438 77.4698C474.307 78.44 473.193 79.3656 471.98 80.2848C469.542 82.1333 467.612 83.7279 465.287 85.654C464.45 86.3467 464.463 86.1948 463.626 86.888L456.933 92.2568C454.281 94.2671 452.571 95.2366 452.394 97.3686Z" fill="#002855"/>
<path fill-rule="evenodd" clip-rule="evenodd" d="M452.394 44.2931C457.348 40.9758 471.421 29.1565 477.706 24.2503C479.129 23.1398 478.757 24.1894 478.931 22.0978C477.413 22.5034 478.281 22.2256 477.065 23.1266C476.46 23.5756 476.035 23.8825 475.438 24.3943L456.933 39.1817C454.281 41.1916 452.571 42.1611 452.394 44.2931Z" fill="#002855"/>
<path fill-rule="evenodd" clip-rule="evenodd" d="M452.394 86.7534L477.799 66.8025C478.863 65.977 478.799 66.152 478.931 64.5582C477.152 65.0336 473.671 68.2296 471.89 69.5797L455.093 83.1795C453.57 84.3213 452.578 84.5451 452.394 86.7534Z" fill="#002855"/>
<path fill-rule="evenodd" clip-rule="evenodd" d="M452.394 107.983C455.004 106.602 468.756 94.9966 472.576 91.9775L477.706 87.9406C479.129 86.8305 478.757 87.8801 478.931 85.7885C477.526 86.1639 476.598 87.0891 475.438 88.085L462.044 98.8162C461.271 99.3922 461.225 99.4965 460.462 100.129L455.093 104.41C453.57 105.551 452.578 105.775 452.394 107.983Z" fill="#002855"/>
<path fill-rule="evenodd" clip-rule="evenodd" d="M452.394 81.4459L472.659 65.5231C473.433 64.9467 473.478 64.8424 474.241 64.2105L477.799 61.4949C478.863 60.6694 478.799 60.8444 478.931 59.2506C476.746 59.8341 461.647 72.7612 456.933 76.3344C454.281 78.3444 452.571 79.3134 452.394 81.4459Z" fill="#002855"/>
<path fill-rule="evenodd" clip-rule="evenodd" d="M454.324 115.703C457.69 115.703 456.978 114.9 461.079 111.844L467.236 106.902C467.958 106.285 467.876 106.409 468.603 105.857L478 98.3668C479.419 97.1445 478.737 98.7455 478.931 96.4033C477.279 96.8448 455.716 113.803 454.324 115.703Z" fill="#002855"/>
<path fill-rule="evenodd" clip-rule="evenodd" d="M452.394 76.1383L477.799 56.1876C478.863 55.3618 478.799 55.5372 478.931 53.943C476.894 54.4872 466.621 63.3185 465.287 64.4236L456.933 71.0268C456.057 71.6905 455.969 71.9074 455.093 72.5643C453.57 73.7061 452.578 73.9299 452.394 76.1383Z" fill="#002855"/>
<path fill-rule="evenodd" clip-rule="evenodd" d="M452.394 65.5231L462.405 57.6813C463.287 56.8838 463.256 57.0702 464.057 56.4386L472.576 49.5175C473.832 48.525 474.862 47.7786 476.12 46.7887C479.469 44.1544 478.778 45.173 478.931 43.3282C477.054 43.8297 465.414 53.5612 463.626 55.0428L455.154 62.0111C453.584 63.3045 452.599 63.0558 452.394 65.5231Z" fill="#002855"/>
<path fill-rule="evenodd" clip-rule="evenodd" d="M452.394 113.291L476.12 94.5567C476.791 94.029 476.931 93.8537 477.706 93.2482C479.129 92.1378 478.757 93.1874 478.931 91.0958C476.668 91.7001 459.441 106.249 455.154 109.779C453.584 111.072 452.599 110.824 452.394 113.291Z" fill="#002855"/>
<path fill-rule="evenodd" clip-rule="evenodd" d="M452.394 38.9855C454.722 37.4265 456.493 35.7801 458.666 34.1606L461.909 31.6135C464.846 29.1806 476.314 20.4681 477.484 18.7204C474.005 18.7979 467.291 25.7186 464.17 28.0838C463.436 28.6405 463.518 28.6674 462.874 29.2011L458.049 33.0607C457.213 33.7539 457.226 33.6019 456.389 34.2951C453.881 36.3723 452.586 36.6819 452.394 38.9855Z" fill="#002855"/>
<path fill-rule="evenodd" clip-rule="evenodd" d="M452.394 49.6007L476.159 30.9049C476.889 30.2472 476.849 30.2208 477.705 29.5564C479.131 28.4497 478.757 29.4963 478.931 27.4054C477.526 27.7807 476.598 28.7063 475.438 29.7019C474.307 30.6721 473.193 31.5977 471.98 32.5168L462.044 40.4331C461.271 41.0095 461.225 41.1138 460.462 41.7461L455.093 46.0268C453.57 47.1682 452.578 47.3923 452.394 49.6007Z" fill="#002855"/>
<path fill-rule="evenodd" clip-rule="evenodd" d="M452.394 54.9083L477.706 34.8654C479.129 33.755 478.757 34.8046 478.931 32.7126C477.526 33.0883 476.598 34.0139 475.438 35.0091L465.287 43.1932C464.45 43.8868 464.463 43.7345 463.626 44.4276L455.093 51.3343C453.57 52.4758 452.578 52.6999 452.394 54.9083Z" fill="#002855"/>
<path fill-rule="evenodd" clip-rule="evenodd" d="M452.394 70.8307L477.706 50.7878C479.129 49.6774 478.757 50.7274 478.931 48.6354C476.967 49.16 466.778 57.8813 465.287 59.116L455.162 67.3259C453.607 68.6386 452.604 68.3063 452.394 70.8307Z" fill="#002855"/>
<path fill-rule="evenodd" clip-rule="evenodd" d="M452.394 60.2155L477.706 40.173C479.129 39.0626 478.757 40.1122 478.931 38.0206C477.413 38.4258 478.281 38.1484 477.065 39.0494L455.093 56.642C453.57 57.7834 452.578 58.0075 452.394 60.2155Z" fill="#002855"/>
<path fill-rule="evenodd" clip-rule="evenodd" d="M452.394 33.6779C454.41 32.6109 455.183 31.5988 457.086 30.1679L470.426 19.3826C470.498 19.321 470.626 19.2205 470.691 19.1649L471.212 18.7204H469.221C468.989 18.8055 468.794 19.0258 468.174 19.5428L455.372 29.901C453.638 31.2651 452.595 31.2594 452.394 33.6779Z" fill="#002855"/>
<path fill-rule="evenodd" clip-rule="evenodd" d="M461.079 115.703C464.489 115.628 466.847 112.306 470.725 109.428C472.216 108.321 473.618 107.136 475.072 106.054C478.531 103.475 478.77 103.659 478.931 101.711C476.747 102.294 476.069 103.632 474.395 104.894C472.662 106.2 471.468 107.268 469.847 108.549L461.079 115.703Z" fill="#002855"/>
<path fill-rule="evenodd" clip-rule="evenodd" d="M467.834 115.704C469.245 115.672 469.479 115.841 471.302 114.346C471.864 113.885 472.006 113.659 472.576 113.208L476.653 110.047C478.279 108.849 478.739 109.334 478.931 107.019C477.668 107.356 476.827 107.984 475.914 108.826C474.763 109.886 474.434 110.055 473.276 111.013L467.834 115.704Z" fill="#002855"/>
<path fill-rule="evenodd" clip-rule="evenodd" d="M452.394 28.3703L464.456 18.7204C461.197 18.7204 462.021 19.315 457.785 22.6636C456.718 23.5068 455.799 24.2676 454.806 24.9918C453.457 25.9752 452.567 26.2897 452.394 28.3703Z" fill="#002855"/>
<path fill-rule="evenodd" clip-rule="evenodd" d="M452.394 23.0631C453.912 22.26 456.792 20.078 457.702 18.7204C455.777 18.7631 455.363 19.1747 454.227 20.0709C452.953 21.0747 452.546 21.2414 452.394 23.0631Z" fill="#002855"/>
<path fill-rule="evenodd" clip-rule="evenodd" d="M474.589 115.704C476.81 115.654 476.123 115.668 477.434 114.689C478.48 113.908 478.787 114.071 478.931 112.326C477.039 112.831 475.554 114.263 474.589 115.704Z" fill="#002855"/>
<path fill-rule="evenodd" clip-rule="evenodd" d="M545.517 115.704L545.008 115.221L545.018 115.704H545.517Z" fill="#373435"/>
<path fill-rule="evenodd" clip-rule="evenodd" d="M348.656 115.703H375.676V63.5933C377.228 64.6322 390.354 82.3563 392.698 85.1713L409.933 107.019C411.076 104.985 410.416 72.0409 410.416 66.9706C410.416 64.6179 403.971 57.1805 402.019 54.6203L392.696 42.7129C387.525 35.8455 378.35 24.8754 374.228 18.7204H348.656V115.703Z" fill="#0082BA"/>
<path fill-rule="evenodd" clip-rule="evenodd" d="M305.713 115.703H333.215V18.7204H305.713V115.703Z" fill="#0082BA"/>
<path fill-rule="evenodd" clip-rule="evenodd" d="M544.997 114.739L545.008 115.221L545.517 115.703H581.222V68.4182C579.687 68.8279 580.013 68.9519 578.808 69.8635L558.895 85.1732C558.055 85.8108 557.491 86.2345 556.692 86.8309C555.624 87.6284 555.257 87.9946 554.286 88.7672C553.007 89.7857 546.435 95.0646 545.035 95.4384L544.997 114.739Z" fill="#0082BA"/>
<path fill-rule="evenodd" clip-rule="evenodd" d="M254.085 115.703H297.51V92.061H254.085V115.703Z" fill="#0082BA"/>
<path fill-rule="evenodd" clip-rule="evenodd" d="M584.6 115.703H620.788V93.9908H584.6V115.703Z" fill="#0082BA"/>
<path d="M412.388 119.342H440.658C447.033 119.342 451.893 119.83 455.237 120.805C459.731 122.129 463.581 124.48 466.785 127.86C469.99 131.239 472.429 135.384 474.101 140.296C475.773 145.173 476.609 151.2 476.609 158.377C476.609 164.682 475.826 170.117 474.258 174.68C472.342 180.254 469.607 184.765 466.054 188.214C463.371 190.827 459.748 192.865 455.185 194.328C451.771 195.408 447.207 195.948 441.494 195.948H412.388V119.342ZM427.855 132.301V183.041H439.404C443.724 183.041 446.841 182.797 448.757 182.309C451.266 181.682 453.339 180.62 454.976 179.122C456.648 177.624 458.007 175.168 459.052 171.754C460.097 168.305 460.619 163.619 460.619 157.697C460.619 151.775 460.097 147.229 459.052 144.059C458.007 140.889 456.543 138.415 454.662 136.638C452.781 134.862 450.395 133.66 447.503 133.033C445.343 132.545 441.111 132.301 434.805 132.301H427.855ZM500.647 157.384L487.322 154.98C488.82 149.615 491.398 145.644 495.056 143.066C498.713 140.488 504.148 139.199 511.359 139.199C517.908 139.199 522.786 139.983 525.991 141.55C529.196 143.083 531.442 145.051 532.731 147.455C534.055 149.824 534.717 154.196 534.717 160.571L534.56 177.711C534.56 182.588 534.787 186.194 535.24 188.528C535.727 190.827 536.616 193.3 537.905 195.948H523.378C522.995 194.973 522.524 193.527 521.967 191.611C521.723 190.74 521.549 190.165 521.444 189.886C518.936 192.325 516.254 194.154 513.397 195.373C510.54 196.592 507.492 197.202 504.252 197.202C498.539 197.202 494.028 195.652 490.718 192.551C487.444 189.451 485.806 185.532 485.806 180.794C485.806 177.659 486.555 174.872 488.053 172.433C489.551 169.96 491.642 168.079 494.324 166.79C497.041 165.466 500.943 164.316 506.029 163.341C512.892 162.052 517.647 160.85 520.295 159.735V158.272C520.295 155.45 519.598 153.447 518.205 152.263C516.811 151.043 514.181 150.434 510.314 150.434C507.701 150.434 505.663 150.956 504.2 152.001C502.737 153.012 501.553 154.806 500.647 157.384ZM520.295 169.298C518.414 169.925 515.435 170.674 511.359 171.545C507.283 172.416 504.618 173.269 503.364 174.105C501.448 175.464 500.49 177.188 500.49 179.279C500.49 181.334 501.256 183.111 502.789 184.609C504.322 186.107 506.273 186.856 508.642 186.856C511.289 186.856 513.815 185.985 516.219 184.243C517.995 182.919 519.163 181.299 519.72 179.383C520.103 178.129 520.295 175.743 520.295 172.224V169.298ZM574.692 140.453V152.158H564.659V174.523C564.659 179.052 564.746 181.7 564.921 182.466C565.13 183.198 565.565 183.807 566.227 184.295C566.924 184.783 567.76 185.027 568.735 185.027C570.094 185.027 572.062 184.556 574.64 183.616L575.894 195.007C572.48 196.471 568.613 197.202 564.294 197.202C561.646 197.202 559.26 196.767 557.135 195.896C555.01 194.99 553.442 193.84 552.432 192.447C551.456 191.019 550.777 189.103 550.394 186.699C550.08 184.992 549.923 181.543 549.923 176.352V152.158H543.182V140.453H549.923V129.427L564.659 120.857V140.453H574.692ZM595.856 157.384L582.531 154.98C584.029 149.615 586.606 145.644 590.264 143.066C593.922 140.488 599.357 139.199 606.568 139.199C613.117 139.199 617.994 139.983 621.199 141.55C624.404 143.083 626.651 145.051 627.94 147.455C629.264 149.824 629.926 154.196 629.926 160.571L629.769 177.711C629.769 182.588 629.996 186.194 630.448 188.528C630.936 190.827 631.825 193.3 633.113 195.948H618.587C618.203 194.973 617.733 193.527 617.176 191.611C616.932 190.74 616.758 190.165 616.653 189.886C614.145 192.325 611.462 194.154 608.606 195.373C605.749 196.592 602.701 197.202 599.461 197.202C593.748 197.202 589.237 195.652 585.927 192.551C582.652 189.451 581.015 185.532 581.015 180.794C581.015 177.659 581.764 174.872 583.262 172.433C584.76 169.96 586.85 168.079 589.533 166.79C592.25 165.466 596.152 164.316 601.238 163.341C608.101 162.052 612.856 160.85 615.504 159.735V158.272C615.504 155.45 614.807 153.447 613.413 152.263C612.02 151.043 609.39 150.434 605.523 150.434C602.91 150.434 600.872 150.956 599.409 152.001C597.946 153.012 596.761 154.806 595.856 157.384ZM615.504 169.298C613.622 169.925 610.644 170.674 606.568 171.545C602.492 172.416 599.827 173.269 598.573 174.105C596.657 175.464 595.699 177.188 595.699 179.279C595.699 181.334 596.465 183.111 597.998 184.609C599.531 186.107 601.482 186.856 603.851 186.856C606.498 186.856 609.024 185.985 611.428 184.243C613.204 182.919 614.371 181.299 614.929 179.383C615.312 178.129 615.504 175.743 615.504 172.224V169.298Z" fill="#0082BA"/>
<path d="M412.458 234.745V213.211H416.806V234.745H412.458ZM421.007 234.745V213.211H425.237L434.05 227.591V213.211H438.09V234.745H433.727L425.046 220.702V234.745H421.007ZM447.549 234.745V216.854H441.16V213.211H458.272V216.854H451.897V234.745H447.549ZM461.092 234.745V213.211H477.059V216.854H465.44V221.628H476.251V225.256H465.44V231.117H477.471V234.745H461.092ZM481.275 234.745V213.387H485.623V231.117H496.434V234.745H481.275ZM499.665 234.745V213.387H504.013V231.117H514.824V234.745H499.665ZM517.806 234.745V213.211H522.154V234.745H517.806ZM536.329 226.827V223.199H545.7V231.778C544.79 232.659 543.468 233.437 541.734 234.113C540.011 234.779 538.263 235.112 536.49 235.112C534.238 235.112 532.275 234.642 530.6 233.702C528.926 232.752 527.667 231.401 526.825 229.648C525.983 227.885 525.562 225.971 525.562 223.904C525.562 221.662 526.032 219.669 526.972 217.926C527.912 216.183 529.288 214.846 531.1 213.916C532.48 213.201 534.199 212.844 536.255 212.844C538.929 212.844 541.015 213.407 542.513 214.533C544.021 215.649 544.99 217.196 545.421 219.175L541.103 219.982C540.799 218.925 540.226 218.092 539.384 217.485C538.552 216.868 537.509 216.56 536.255 216.56C534.356 216.56 532.843 217.162 531.716 218.367C530.6 219.571 530.042 221.358 530.042 223.728C530.042 226.284 530.61 228.203 531.746 229.486C532.882 230.759 534.37 231.396 536.211 231.396C537.122 231.396 538.033 231.219 538.943 230.867C539.864 230.505 540.652 230.069 541.308 229.56V226.827H536.329ZM549.725 234.745V213.211H565.692V216.854H554.073V221.628H564.884V225.256H554.073V231.117H566.103V234.745H549.725Z" fill="#002855"/>
<path d="M570.291 235V213.466H573.215L584.525 230.373V213.466H587.257V235H584.334L573.024 218.078V235H570.291ZM607.425 227.45L610.275 228.17C609.677 230.51 608.6 232.297 607.043 233.531C605.496 234.755 603.601 235.367 601.358 235.367C599.038 235.367 597.148 234.897 595.688 233.957C594.239 233.007 593.133 231.636 592.369 229.844C591.615 228.052 591.238 226.128 591.238 224.071C591.238 221.829 591.664 219.875 592.516 218.211C593.377 216.536 594.597 215.268 596.173 214.406C597.76 213.535 599.503 213.099 601.402 213.099C603.557 213.099 605.368 213.647 606.837 214.744C608.306 215.841 609.33 217.383 609.907 219.371L607.102 220.032C606.602 218.465 605.878 217.324 604.928 216.61C603.978 215.895 602.783 215.537 601.344 215.537C599.689 215.537 598.303 215.934 597.187 216.727C596.08 217.52 595.302 218.588 594.851 219.929C594.401 221.261 594.176 222.637 594.176 224.057C594.176 225.888 594.44 227.489 594.969 228.86C595.507 230.221 596.34 231.24 597.466 231.915C598.592 232.591 599.811 232.929 601.123 232.929C602.72 232.929 604.071 232.469 605.177 231.548C606.284 230.628 607.033 229.262 607.425 227.45ZM613.859 235V213.466H629.429V216.007H616.708V222.603H628.621V225.129H616.708V232.459H629.928V235H613.859Z" fill="#0082BA"/>
<path fill-rule="evenodd" clip-rule="evenodd" d="M674.225 147.761C679.494 153.942 682.809 161.841 683.207 170.506H646.465V134.477C653.475 134.663 660.009 136.759 665.567 140.264H665.498H664.66C662.604 140.264 660.592 141.02 659.324 141.866C658.385 142.493 656.364 144.356 655.807 145.408C656.651 145.854 658.197 147.405 659.108 148.088C660.51 149.139 660.157 149.309 660.694 148.62C661.515 147.567 663.212 146.126 664.66 146.006C665.029 145.983 665.548 146.03 665.548 146.03C666.53 146.482 667.532 146.434 667.532 148.638C667.532 149.835 666.234 151.256 665.498 151.749V151.767L664.369 152.692C664.315 152.725 664.278 152.762 664.215 152.818L664.062 152.945L659.124 156.741C658.915 156.898 658.776 157.004 658.577 157.152C658.313 157.349 658.222 157.441 657.981 157.632C657.664 157.885 656.034 159.193 655.687 159.286L655.678 164.072L655.68 164.191L655.807 164.311H664.003H664.66H665.498H665.704H674.47V158.928H665.498L664.66 158.948V158.796L665.78 158.222V158.221C666.349 157.944 667.158 157.265 667.601 156.963C670.709 154.844 674.231 152.378 674.231 148.159C674.231 148.024 674.229 147.892 674.225 147.761Z" fill="#0082BA"/>
</svg>
